<svg width="517" height="560" viewBox="0 0 517 560" fill="none" xmlns="http://www.w3.org/2000/svg">
<g clip-path="url(#clip0_402_5)">
<path d="M257.254 17.9152C278.591 15.4996 297.915 5.63623 318.648 0C321.467 5.63623 324.889 12.4802 332.336 12.4802C339.784 13.688 344.012 6.44141 347.434 1.00647C365.349 8.05176 381.855 17.9152 400.173 23.954C409.633 27.1747 421.107 26.5708 428.354 34.6226C437.009 44.0834 437.211 57.7714 435.802 69.6477C433.99 79.1085 428.555 89.1732 418.49 91.5888C408.828 94.0043 399.166 95.6147 390.108 99.6405C375.413 105.478 361.927 114.536 346.427 118.763C344.414 115.14 342.2 111.718 339.986 108.095C335.356 108.095 330.324 107.692 326.096 110.108C323.278 112.523 321.467 115.945 319.454 118.965C296.909 117.757 276.779 104.472 254.033 104.874C230.482 105.277 207.132 110.913 185.794 120.776C139.497 139.094 102.056 176.736 81.3228 221.826C70.0503 246.988 63.005 274.162 61.9986 301.74C61.1934 349.044 75.4853 397.153 104.472 434.795C118.361 454.924 137.081 471.431 157.211 485.119C199.885 515.111 254.436 526.183 305.967 519.942C368.771 512.495 427.549 476.463 462.775 423.925C486.326 391.114 499.411 351.661 502.43 311.603C506.053 279.799 500.618 247.592 490.755 217.398C483.106 192.638 469.619 170.093 454.119 149.561C446.269 138.692 436.405 129.835 427.146 120.374C445.665 133.861 460.963 151.172 473.846 170.093C497.196 203.106 510.884 242.358 515.917 282.415C517.124 307.577 517.93 333.142 512.092 357.699C502.229 408.224 475.658 455.126 438.217 490.352C419.899 509.073 397.354 522.559 374.407 534.838C352.265 545.708 328.311 553.559 303.753 556.578C253.63 565.032 200.891 558.39 154.594 537.052C144.932 532.221 135.672 526.585 126.211 521.553C88.972 498.404 56.9662 466.197 35.2265 428.152C15.7009 391.517 1.20776 351.459 -9.16421e-07 309.993C0.201293 289.863 -1.20777 269.734 2.61682 249.806C12.8828 189.216 43.0769 131.848 88.972 90.7836C113.731 67.4335 143.321 49.9209 174.723 37.2394C200.891 25.9669 229.073 20.9346 257.254 17.9152Z" fill="white"/>
<path d="M239.137 214.177C251.014 212.566 263.293 212.566 275.37 214.177C300.935 219.813 323.278 238.332 333.343 262.689C345.219 287.045 341.797 316.635 328.109 339.583C316.434 356.894 299.324 370.985 278.792 376.017C269.935 377.628 260.877 380.848 251.618 379.238C239.137 377.225 226.254 374.608 215.385 367.764C188.612 352.868 171.301 322.07 173.314 291.272C173.314 273.76 181.366 257.254 191.632 243.364C202.904 228.267 220.618 218.404 239.137 214.177Z" fill="white"/>
</g>
<defs>
<clipPath id="clip0_402_5">
<rect width="516.722" height="560" fill="white"/>
</clipPath>
</defs>
</svg>
